<svg xmlns="http://www.w3.org/2000/svg" width="18" height="18" viewBox="0 0 18 18">
  <defs>
    <clipPath id="clip-path">
      <rect id="Прямоугольник_164" data-name="Прямоугольник 164" width="18" height="18" fill="#9068fe" stroke="#707070" stroke-width="1"/>
    </clipPath>
  </defs>
  <g id="Группа_масок_52" data-name="Группа масок 52" clip-path="url(#clip-path)">
    <path id="send" d="M19.892,2.924a1.74,1.74,0,0,0-1.738-.453L3.667,6.684A1.727,1.727,0,0,0,2.422,8.052a2.028,2.028,0,0,0,.9,1.893l4.53,2.784A1.174,1.174,0,0,0,9.3,12.555L14.49,7.336a.661.661,0,0,1,.954,0,.687.687,0,0,1,0,.96l-5.2,5.22a1.191,1.191,0,0,0-.174,1.457l2.768,4.575a1.719,1.719,0,0,0,1.495.852,1.866,1.866,0,0,0,.225-.009,1.754,1.754,0,0,0,1.468-1.25L20.324,4.672a1.768,1.768,0,0,0-.432-1.749Z" transform="translate(-2.4 -2.4)" fill="#9068fe"/>
  </g>
</svg>
